<svg width="42" height="40" viewBox="0 0 42 40" fill="none" xmlns="http://www.w3.org/2000/svg">
<path d="M15.75 39.6667C18.0051 39.6667 19.8333 37.8385 19.8333 35.5833C19.8333 33.3282 18.0051 31.5 15.75 31.5C13.4948 31.5 11.6666 33.3282 11.6666 35.5833C11.6666 37.8385 13.4948 39.6667 15.75 39.6667Z" fill="#3D3D3D"/>
<path d="M32.4832 31.5199C30.239 31.2991 28.2408 32.9393 28.0199 35.1836C27.7991 37.4279 29.4393 39.4262 31.6834 39.6471C31.9494 39.6732 32.2173 39.6732 32.4832 39.6471C34.7274 39.4262 36.3676 37.4279 36.1467 35.1836C35.956 33.2447 34.422 31.7107 32.4832 31.5199Z" fill="#3D3D3D"/>
<path d="M41.6633 11.9437C41.4104 11.565 40.9819 11.3414 40.5266 11.3506H34.8924V11.2518C34.8928 5.27404 30.0472 0.427815 24.0695 0.427429C18.0919 0.427043 13.2457 5.27259 13.2453 11.2503C13.2453 11.2508 13.2453 11.2513 13.2453 11.2518V11.3506H9.04435L7.61109 4.82682C7.45191 4.16318 6.86029 3.69396 6.17783 3.6901H0V6.65546H4.99169L9.588 27.7589C9.70933 28.4528 10.317 28.9556 11.0213 28.9451H36.8693C37.5518 28.9411 38.1433 28.472 38.3026 27.8084L41.9598 13.1793C42.0671 12.7436 41.9566 12.2831 41.6633 11.9437ZM24.0688 19.11C19.7289 19.11 16.2106 15.5917 16.2106 11.2518C16.2106 6.91184 19.7289 3.39356 24.0688 3.39356C28.4088 3.39356 31.927 6.91184 31.927 11.2518C31.9001 15.5805 28.3976 19.0829 24.0688 19.11Z" fill="#3D3D3D"/>
</svg>
