<svg width="11" height="13" viewBox="0 0 11 13" fill="none" xmlns="http://www.w3.org/2000/svg">
<path d="M5.50001 0C2.90394 0 0.791901 2.11204 0.791901 4.70808C0.791901 7.92985 5.0052 12.6596 5.18458 12.8594C5.35307 13.047 5.64725 13.0467 5.81544 12.8594C5.99482 12.6596 10.2081 7.92985 10.2081 4.70808C10.2081 2.11204 8.09605 0 5.50001 0ZM5.50001 7.07685C4.19386 7.07685 3.13127 6.01423 3.13127 4.70808C3.13127 3.40194 4.19389 2.33934 5.50001 2.33934C6.80613 2.33934 7.86872 3.40196 7.86872 4.70811C7.86872 6.01425 6.80613 7.07685 5.50001 7.07685Z" fill="white"/>
</svg>
