<svg width="166" height="45" viewBox="0 0 166 45" fill="none" xmlns="http://www.w3.org/2000/svg">
<path d="M77.5917 16.3798C77.5917 27.778 86.9734 32.9791 96.2447 32.9791C101.653 32.9791 106.399 30.6552 109.82 28.6633C110.041 28.8846 110.703 29.4379 110.703 29.4379L112.028 28.6633L114.015 27.2247L108.165 18.3717L105.185 20.2529C105.185 20.2529 105.185 21.4703 105.185 21.6916C104.633 22.5769 100.66 24.4581 96.9069 24.4581C92.2713 24.4581 87.6356 22.0236 87.6356 16.4904C87.6356 10.6253 92.6024 8.52277 96.9069 8.52277C99.9973 8.52277 102.977 9.51873 105.074 11.2893C105.074 11.4 105.074 12.6173 105.074 12.6173L105.847 13.1706L107.944 14.6092L113.904 5.53488L110.814 3.4323C110.814 3.4323 109.71 4.09625 109.71 4.20692C109.379 3.98559 109.048 3.87493 108.606 3.65361L107.944 3.32163C103.971 0.997725 100.108 0.00176456 96.0239 0.00176456C86.9734 -0.108898 77.5917 4.98155 77.5917 16.3798Z" fill="white"/>
<path d="M111.586 26.782L111.035 27.114C110.703 26.8927 110.483 26.5607 110.041 26.5607C109.71 26.5607 109.269 26.782 109.048 26.8927C105.074 29.2166 100.88 30.9872 96.2447 30.9872C87.3045 30.9872 79.4681 26.0074 79.4681 16.2691C79.4681 6.53085 87.3045 1.55103 96.2447 1.55103C100.328 1.55103 103.75 2.65767 107.282 4.64959C108.054 5.09224 108.937 5.75619 109.82 5.97752C110.262 5.97752 110.593 5.75619 111.035 5.4242L111.586 5.75621L107.723 11.6213L107.172 11.2893C107.172 10.6254 107.172 10.072 106.62 9.62939C103.971 7.41615 100.439 6.30952 97.0173 6.30952C91.0572 6.30952 85.8697 9.62938 85.8697 16.1585C85.8697 22.5769 91.0572 26.0074 97.0173 26.0074C101.432 26.0074 107.172 23.4622 107.172 21.5809V21.0276L107.723 20.6956L111.586 26.782Z" fill="#325B8B"/>
<path d="M30.1316 7.52676H19.867V11.7319H19.9774C19.0944 13.2812 17.3285 16.3798 16.004 18.8143C14.4588 15.9371 12.5825 12.3959 12.0306 11.5106C12.141 11.5106 12.3617 11.3999 12.3617 11.3999V7.52676H0.110379V11.2893C0.110379 11.2893 0.772606 11.5106 1.10372 11.6213C1.10372 12.6172 1.10372 28.3313 1.10372 29.3272C0.772606 29.4379 0.110379 29.6592 0.110379 29.6592L0 31.0978V33.5324H10.2646V29.7699C10.2646 29.7699 9.6024 29.5486 9.27129 29.4379C9.27129 28.9953 9.27129 26.5607 9.27129 23.7941C11.4787 27.9993 15.4521 35.1923 15.4521 35.1923C15.4521 35.1923 19.7567 27.6673 22.1848 23.3515C22.1848 26.3394 22.1848 28.8846 22.1848 29.3272C21.8537 29.4379 21.1915 29.6592 21.1915 29.6592L21.0811 31.0978V33.5324H31.6769V29.7699C31.6769 29.7699 31.0146 29.5486 30.6835 29.4379C30.6835 28.4419 30.6835 12.7279 30.6835 11.7319C31.0146 11.6213 31.6769 11.3999 31.6769 11.3999L31.7872 9.96135V7.52676H30.1316Z" fill="white"/>
<path d="M7.50531 16.2691V29.8806C7.50531 30.5445 7.94679 30.8765 8.49865 30.9872V31.5405H1.98669V30.9872C2.53856 30.8765 2.98004 30.5445 2.98004 29.8806V11.1787C2.98004 10.5147 2.53856 10.1827 1.98669 9.96136V9.40805H10.4854V9.96136C10.1542 10.072 9.82313 10.2934 9.71276 10.736C9.71276 11.068 9.82313 11.2893 9.9335 11.6213L16.004 22.7982L22.0745 11.8426C22.1848 11.5106 22.4056 11.2893 22.516 10.8466C22.516 10.404 22.1848 9.96136 21.633 9.96136V9.40805H30.0213V9.96136C29.4694 10.1827 29.0279 10.404 29.0279 11.1787V29.8806C29.0279 30.5445 29.4694 30.8765 30.0213 30.9872V31.5405H23.1782V30.9872C23.8404 30.8765 24.2819 30.5445 24.2819 29.8806V16.2691L15.6729 31.3192L7.50531 16.2691Z" fill="#325B8B"/>
<path d="M34.1051 7.52676V11.2893C34.1051 11.2893 34.7673 11.5106 35.0984 11.6213C35.0984 12.6172 35.0984 28.3313 35.0984 29.3272C34.7673 29.4379 34.1051 29.6592 34.1051 29.6592L33.9947 31.0978V33.5324H59.4907V25.0114H55.7381C55.7381 25.0114 55.5173 25.6754 55.4069 26.118C54.5239 26.118 46.3564 26.118 43.5971 26.118C43.5971 25.1221 43.5971 24.7901 43.5971 23.7941C45.8045 23.7941 49.4468 23.7941 50.1091 23.7941C50.2194 24.1261 50.4402 24.7901 50.4402 24.7901L51.875 24.9008H54.3032V15.6051H50.5505C50.5505 15.6051 50.3298 16.2691 50.2194 16.6011C49.4468 16.6011 45.8045 16.6011 43.7074 16.6011C43.7074 15.9371 43.7074 15.8265 43.7074 15.1625C46.3564 15.1625 54.3032 15.1625 55.1862 15.1625C55.2966 15.4945 55.5173 16.1584 55.5173 16.1584L56.9521 16.2691H59.3803V7.85877H34.1051V7.52676Z" fill="white"/>
<path d="M41.8311 27.9993H56.0691C56.7314 27.9993 57.0625 27.5567 57.2832 26.8927H57.8351V32.6471H57.2832C57.0625 32.0938 56.7314 31.6512 56.0691 31.6512H36.0917V31.0979C36.6436 30.9872 37.0851 30.6552 37.0851 29.9913V11.2893C37.0851 10.6254 36.6436 10.2934 36.0917 10.072V9.40806H55.738C56.4003 9.40806 56.7314 8.96542 56.8418 8.41211H57.3936V14.1665H56.8418C56.7314 13.6132 56.4003 13.1706 55.738 13.1706H41.9415V18.3717H50.8816C51.5439 18.3717 51.875 17.9291 52.0957 17.3758H52.6476V22.9089H52.0957C51.875 22.3556 51.6542 21.9129 50.8816 21.9129H41.9415V27.9993H41.8311Z" fill="#325B8B"/>
<path d="M63.6848 7.52676H61.8085V11.2893C61.8085 11.2893 62.4707 11.5106 62.8018 11.6213C62.8018 12.6172 62.8018 28.3313 62.8018 29.3272C62.4707 29.4379 61.8085 29.6592 61.8085 29.6592L61.6981 31.0978V33.5324H72.2939V29.7699C72.2939 29.7699 71.6316 29.5486 71.1901 29.4379C71.1901 28.7739 71.1901 26.45 71.1901 24.5688C73.3976 24.5688 77.2606 24.5688 77.2606 24.5688C79.7992 24.5688 82.3377 24.4581 84.6556 22.7982C86.6423 21.3596 87.746 18.8143 87.746 16.1584C87.746 13.3919 86.6423 11.068 84.6556 9.5187C82.4481 7.85877 79.6888 7.63743 77.2606 7.63743H63.6848V7.52676ZM77.2606 14.9411C79.3577 14.9411 79.3577 15.3838 79.3577 15.9371C79.3577 16.2691 79.3577 17.0437 76.9295 17.0437C76.9295 17.0437 73.5079 17.0437 71.4109 17.0437C71.4109 16.1584 71.4109 15.8264 71.4109 14.9411C73.6183 14.9411 77.2606 14.9411 77.2606 14.9411Z" fill="white"/>
<path d="M69.5346 19.0357V13.1706H77.2606C79.3577 13.1706 81.234 13.6132 81.234 16.0478C81.234 18.593 78.9162 19.0357 76.9295 19.0357H69.5346ZM69.5346 22.5769H77.4814C79.6888 22.5769 81.8963 22.4662 83.7726 21.1383C85.3178 20.0316 86.0904 17.929 86.0904 15.9371C86.0904 13.9452 85.3178 12.0639 83.7726 10.8466C82.0066 9.5187 79.5784 9.40805 77.4814 9.40805H63.6848V9.96136C64.2367 10.1827 64.6782 10.404 64.6782 11.1787V29.8806C64.6782 30.5445 64.2367 30.8765 63.6848 30.9872V31.5405H70.5279V30.9872C69.8657 30.8765 69.4242 30.5445 69.4242 29.8806V22.5769H69.5346Z" fill="#325B8B"/>
<path d="M81.0133 26.6713L80.6822 27.0033C80.2407 27.3353 79.6888 27.9993 79.6888 29.1059V29.2166C79.1369 29.7699 75.7154 33.2004 75.7154 33.2004C75.7154 33.2004 76.488 34.0857 76.5984 34.307C76.2673 34.1964 75.9362 34.1964 75.4947 34.1964C74.0598 34.307 73.2872 35.635 73.2872 36.8523C73.2872 38.4015 74.5013 39.7295 75.1635 40.3935C76.2673 41.3894 78.0332 42.3854 79.3577 42.3854C81.0133 42.2747 87.3045 37.8482 87.3045 35.7456V35.0817L86.9734 34.8603L86.0904 34.5284C85.6489 34.5284 85.3178 34.8603 84.6556 35.4137L84.4348 35.635C84.2141 35.8563 83.9933 35.967 83.7726 36.0776C84.8763 34.307 85.6489 32.5364 85.6489 30.9872C85.6489 29.7699 85.097 26.782 83.9933 25.786L82.8896 25.3434C82.2274 25.454 81.7859 25.8967 81.0133 26.6713ZM78.3644 35.0817C78.3644 35.0817 79.4681 33.975 80.4614 33.0897C80.4614 33.4217 80.4614 34.0857 80.4614 34.0857C80.3511 35.8563 79.3577 36.6309 78.9162 36.8523C78.8059 36.7416 78.6955 36.4096 78.6955 36.4096C78.5851 36.0776 78.3643 35.7456 78.0332 35.4137C78.1436 35.1923 78.3644 35.0817 78.3644 35.0817Z" fill="#FABEBF"/>
<path d="M77.7022 34.4177L76.8192 33.4217L80.5718 29.7699C80.3511 28.6633 80.9029 28.2206 81.234 27.778C82.2274 26.782 82.5585 26.45 82.8896 26.3393C83.7726 26.2287 84.6556 29.4379 84.6556 30.9872C84.6556 32.9791 83.2208 35.7456 80.9029 38.0695C81.1237 38.1802 81.4548 38.1802 81.7859 38.1802C82.0067 38.1802 82.8896 38.0695 85.0971 36.2989C85.7593 35.7456 85.9801 35.5243 86.2008 35.5243C86.3112 35.5243 86.4216 35.5243 86.4216 35.635C86.4216 37.0736 80.6822 41.2787 79.2474 41.3894C77.7021 41.5001 74.1702 39.0655 74.1702 36.8523C74.1702 36.1883 74.5014 35.303 75.4947 35.1923C77.9229 34.971 77.5918 37.8482 78.8059 37.7376C79.6889 37.6269 81.1237 36.4096 81.234 34.0857C81.234 33.643 81.234 33.2004 81.234 32.7578C81.1237 32.2045 81.0133 31.7618 80.7926 31.2085L77.7022 34.4177Z" fill="#CD1719" fill-opacity="0.78"/>
<path d="M94.8098 26.6714C90.6157 27.0034 85.4282 33.3111 85.4282 38.0696C85.4282 39.9508 86.2007 41.0575 86.7526 41.6108C87.5252 42.2748 88.5186 42.6067 89.6223 42.6067C91.8297 42.3854 93.2646 41.0575 94.9202 39.5082C95.5824 38.8442 97.9002 36.7416 97.9002 35.7457L97.1276 33.5324L96.6861 34.3071L95.5824 34.8604L94.0372 36.0777C92.0505 37.5163 91.3882 37.5163 91.1675 37.6269C90.726 37.6269 90.6157 37.5163 90.5053 37.5163C90.3949 37.4056 90.2845 37.0736 90.2845 36.8523C93.5957 35.635 97.7898 31.9832 97.7898 29.3273C97.7898 28.6633 97.5691 27.9993 97.0173 27.5567C96.4654 26.782 95.6928 26.5607 94.8098 26.6714ZM93.0438 30.6552C92.8231 31.0979 92.1609 31.7618 91.4986 32.3152C92.0505 31.5405 92.6024 30.9872 93.0438 30.6552Z" fill="#FABEBF"/>
<path d="M89.2912 34.7497C89.8431 32.6471 91.8298 29.6592 93.375 29.4379C93.9268 29.4379 94.0372 29.6592 94.0372 30.2125C94.0372 31.8725 90.6157 34.307 89.2912 34.7497ZM89.2912 35.967C92.492 35.1924 96.7965 31.4298 96.7965 29.1059C96.7965 28.5526 96.5758 27.5567 94.8098 27.6673C91.1675 27.9993 86.3112 33.7537 86.3112 38.0696C86.3112 40.6148 87.8564 41.7214 89.5119 41.6108C91.3883 41.5001 92.6024 40.2828 94.258 38.7335C94.9202 38.1802 96.9069 36.1883 96.9069 35.635C96.9069 35.303 96.7965 35.1923 96.6861 35.1923C96.4654 35.1923 96.2447 35.635 94.5891 36.8523C92.492 38.4015 91.7194 38.5122 91.2779 38.5122C89.2912 38.6229 89.1808 36.7416 89.2912 35.967Z" fill="#CD1719" fill-opacity="0.78"/>
<path d="M105.847 25.6754C101.653 26.0074 95.9136 31.8725 95.9136 35.7457C95.9136 37.2949 96.4654 39.3975 97.7899 40.6148C98.5625 41.3895 99.5558 41.7214 100.66 41.6108C102.536 41.5001 104.302 39.9508 105.847 38.6229C108.827 35.8563 109.048 35.0817 109.048 34.639L108.606 33.7537L107.723 33.4218L106.509 34.0857L104.743 35.5244L104.633 35.635C104.081 36.0777 102.977 36.8523 101.653 36.9629C100.991 37.0736 100.439 36.963 100.108 36.631C99.887 36.4097 99.887 36.1883 99.887 36.0777C99.887 34.971 101.984 32.8684 102.977 32.4258C103.088 32.6471 103.308 33.2004 103.308 33.2004L104.191 33.5324C106.068 33.4217 108.275 28.7739 108.275 27.6673C108.275 27.0033 107.944 26.5607 107.723 26.3394C107.172 25.7861 106.62 25.6754 105.847 25.6754Z" fill="#FABEBF"/>
<path d="M105.957 26.6714C106.62 26.6714 107.282 26.782 107.282 27.5567C107.282 28.3313 105.185 32.4258 104.081 32.5365C103.419 32.6471 104.192 31.7618 103.198 31.4299C103.088 31.4299 102.867 31.4299 102.757 31.4299C101.543 31.8725 98.8936 34.4177 98.8936 36.0777C98.8936 36.963 99.5558 37.9589 101.653 37.8483C103.419 37.7376 104.743 36.631 105.295 36.299C107.172 34.8604 107.392 34.4177 107.723 34.4177C107.834 34.4177 108.055 34.5284 108.055 34.7497C108.055 34.971 107.834 35.635 105.185 38.0696C103.75 39.3975 102.205 40.7255 100.66 40.8361C98.0106 41.0575 96.9069 37.8483 96.9069 35.8563C96.9069 32.5365 102.094 27.0034 105.957 26.6714Z" fill="#CD1719" fill-opacity="0.78"/>
<path d="M119.975 25.3434L114.015 31.7618C113.352 32.5365 111.918 33.7538 111.366 33.9751C111.255 33.8644 111.255 33.6431 111.255 33.3111C111.255 33.3111 111.255 33.0898 111.366 32.8685C114.566 30.4339 116.112 28.6633 116.112 27.2247L115.67 26.2287C115.229 25.7861 114.456 25.5648 113.684 25.6754C110.593 25.8967 107.172 32.4258 107.172 34.5284C107.172 36.1883 107.613 38.2909 108.717 39.2869C109.158 39.7295 109.71 39.9508 110.262 39.8402C111.476 39.7295 112.801 38.6229 114.015 37.295C114.015 38.2909 114.235 38.9549 114.787 39.3975C115.229 39.8402 115.781 39.9509 116.332 39.9509C117.878 39.8402 123.396 35.303 123.396 33.7538L123.065 32.8685L122.182 32.5365L121.299 32.9791L120.195 33.8644C119.754 34.1964 119.202 34.4177 118.981 34.5284C118.981 34.4177 118.981 34.4177 118.981 34.3071C118.981 33.4218 119.423 32.7578 119.864 32.3152L122.844 28.8846C122.955 28.774 123.176 27.8887 123.176 27.8887V27.5567C123.176 26.45 122.955 25.6754 122.403 25.2327L121.299 24.9008C121.078 24.7901 119.975 25.3434 119.975 25.3434Z" fill="#FABEBF"/>
<path d="M110.152 38.8442C108.938 38.9549 108.165 36.7416 108.165 34.4177C108.165 32.5365 111.366 26.782 113.794 26.5607C114.456 26.45 115.229 26.782 115.229 27.2247C115.229 28.8846 111.697 31.5405 110.593 32.3152C110.483 32.6471 110.372 32.9791 110.372 33.3111C110.372 34.5284 110.924 35.0817 111.366 34.971C112.249 34.8604 114.235 32.9791 114.787 32.4258L120.637 26.1181C120.858 25.8967 120.968 25.6754 121.189 25.6754C121.52 25.6754 121.961 26.0074 122.072 27.446C122.072 27.5566 122.072 27.6673 122.072 27.778C122.072 27.9993 122.072 27.9993 121.961 28.2206L118.981 31.6512C118.54 32.0938 117.878 32.9791 117.878 34.1964C117.878 34.8604 118.098 35.5244 118.761 35.5244C119.202 35.5244 120.196 34.971 120.637 34.639C121.851 33.8644 122.072 33.5324 122.182 33.5324C122.293 33.5324 122.403 33.6431 122.403 33.7537C122.403 34.4177 117.657 38.9549 116.222 39.0655C115.56 39.1762 114.898 38.7336 114.898 37.295C114.898 36.5203 115.118 34.971 115.339 34.0857C113.794 36.299 111.476 38.7336 110.152 38.8442Z" fill="#CD1719" fill-opacity="0.78"/>
<path d="M127.149 23.1302C125.273 23.2408 122.734 26.5607 122.734 28.2206C122.734 28.7739 122.955 28.9953 123.176 29.2166C123.176 29.2166 123.065 29.3273 123.065 29.4379C122.734 29.8806 122.182 30.5445 122.182 32.0938V32.8685L122.955 33.0898C123.948 33.3111 125.383 31.9832 126.045 29.9912L126.156 29.8806C126.487 29.1059 126.597 28.9953 128.142 28.8846C128.032 29.1059 127.811 29.2166 127.701 29.4379L126.928 30.4339C125.604 32.0938 124.39 33.7538 124.39 35.5244C124.39 36.7416 124.831 37.4056 125.273 37.8483C125.714 38.2909 126.376 38.5122 127.149 38.5122C128.694 38.4016 130.239 37.6269 131.674 36.299C134.875 33.4217 134.875 32.6471 134.875 32.4258L134.434 31.5405L133.44 31.2085C132.116 31.3192 131.564 32.0938 131.122 32.6471C130.791 33.0898 130.571 33.3111 130.019 33.4218C129.908 33.4218 129.798 33.4218 129.798 33.4218C129.798 33.4218 129.798 33.3111 129.798 33.2004C129.798 32.5365 130.46 31.4298 131.674 29.6592L132.557 28.6633C133.219 27.9993 133.882 27.3353 133.882 26.2287C133.882 25.5647 133.661 25.0114 133.33 24.4581C132.888 23.7941 132.226 23.6835 131.895 23.7941L130.46 24.1261L129.688 24.3474C129.688 24.3474 129.025 24.4581 128.584 24.5688L128.142 23.5728L127.039 23.2408L127.149 23.1302Z" fill="#FABEBF"/>
<path d="M124.059 28.9953C124.059 28.6633 123.617 28.7739 123.617 28.2206C123.617 27.0033 125.935 24.1261 127.259 24.0155C127.48 24.0155 127.59 24.1261 127.59 24.3474C127.59 24.5688 127.48 24.6794 127.48 24.9008C127.48 25.1221 127.701 25.4541 128.253 25.4541C128.473 25.4541 128.805 25.3434 129.908 25.1221C131.012 24.7901 131.453 24.6794 131.895 24.5688C132.226 24.5688 132.447 24.6794 132.557 24.9008C132.778 25.2327 132.888 25.6754 132.888 26.118C132.888 27.2247 131.785 27.778 130.791 28.9953C129.136 31.2085 128.694 32.3151 128.694 33.0898C128.694 33.9751 129.246 34.307 130.019 34.1964C131.895 34.0857 131.674 32.2045 133.44 32.0938C133.661 32.0938 133.771 32.3151 133.771 32.4258C133.771 32.8684 131.343 35.1924 130.902 35.5243C128.915 37.1843 127.48 37.4056 126.818 37.4056C126.045 37.5162 125.162 36.9629 125.162 35.4137C125.162 33.8644 126.376 32.4258 127.48 30.8765C128.584 29.4379 129.356 28.6633 129.356 28.2206C129.356 27.778 128.694 27.778 128.142 27.778C125.604 27.9993 125.604 28.3313 125.052 29.5486C124.169 31.7618 122.844 32.2045 122.844 31.9831C122.844 29.9912 124.059 30.1019 124.059 28.9953Z" fill="#CD1719" fill-opacity="0.78"/>
<path d="M142.822 18.593C140.946 18.7037 139.4 20.585 139.4 22.3556C139.4 23.1302 139.731 23.5728 139.952 23.9048H139.842H139.952C139.069 24.0155 138.186 24.3475 137.524 25.1221C133.551 29.106 132.778 30.9872 132.778 33.4218C132.778 35.1924 133.33 36.631 134.213 37.5163C134.875 38.0696 135.648 38.4016 136.531 38.2909C138.297 38.1803 140.173 36.8523 142.601 34.1964C143.153 33.5324 143.484 33.0898 143.484 32.5365L143.153 31.6512L142.16 31.3192L141.056 31.8725L140.725 32.0938C139.511 32.9791 138.738 33.4218 138.186 33.4218C137.855 33.4218 137.524 33.4218 137.414 33.3111C137.303 33.2004 137.193 32.9791 137.193 32.3152V31.9832C137.193 31.7618 137.193 31.6512 137.303 31.5405C140.063 29.8806 141.828 27.778 141.828 25.8967V25.7861C141.828 25.4541 141.718 24.9008 141.497 24.5688H141.608L142.601 24.3475C144.036 23.7942 145.14 22.2449 145.14 20.6956C145.14 19.921 144.919 19.257 144.477 18.925C144.036 18.8144 143.594 18.4823 142.822 18.593Z" fill="#FABEBF"/>
<path d="M141.497 23.6835C141.166 23.6835 140.394 23.4621 140.394 22.3555C140.394 20.9169 141.608 19.589 142.932 19.4783C143.815 19.3676 144.036 20.0316 144.036 20.8062C144.036 21.9128 143.153 23.1301 142.16 23.5728C141.939 23.6834 141.718 23.6835 141.497 23.6835ZM138.186 25.8967C138.628 25.454 139.29 25.0114 140.063 25.0114C140.946 24.9007 140.835 25.6754 140.835 26.118C140.835 27.5566 139.29 29.6592 136.42 31.2085C136.2 31.6512 136.2 31.9831 136.2 32.5364C136.2 34.5284 137.414 34.639 138.186 34.5284C138.959 34.4177 139.842 33.975 141.166 32.9791C141.608 32.6471 141.829 32.4258 142.16 32.3151C142.38 32.3151 142.491 32.4258 142.491 32.5364C142.491 32.7578 142.38 32.9791 141.829 33.5324C139.4 36.1883 137.855 37.1843 136.42 37.2949C134.544 37.4056 133.661 35.635 133.661 33.3111C133.661 31.3192 134.323 29.6592 138.186 25.8967Z" fill="#CD1719" fill-opacity="0.78"/>
<path d="M152.866 16.3798C151.1 16.4904 149.886 17.4864 148.009 20.3636C147.899 20.3636 147.237 20.4743 147.237 20.4743C144.698 20.6956 144.257 20.9169 143.263 22.4662L142.16 24.4581C142.049 24.6795 142.049 24.7901 142.049 24.9008C142.049 25.2328 142.16 25.4541 142.27 25.5648C142.601 26.0074 143.263 26.0074 143.484 26.0074C143.484 26.0074 144.036 26.0074 144.698 25.8967C141.277 30.9872 140.835 32.8684 140.835 34.0857C140.835 35.4137 141.166 36.5203 141.939 37.1843C142.491 37.6269 143.153 37.8483 143.815 37.8483C145.581 37.7376 147.347 36.4097 149.555 34.5284C152.424 32.0938 152.424 31.3192 152.424 31.0979L151.983 30.1019L151.1 29.7699C150.548 29.7699 150.217 30.1019 149.775 30.5446L149.223 30.9872C147.457 32.4258 146.795 32.5365 146.795 32.5365C146.574 32.5365 146.464 32.5365 146.354 32.4258C146.243 32.3151 146.243 32.2045 146.243 31.8725C146.243 30.2125 147.789 27.778 149.223 25.6754C149.444 25.6754 150.989 25.5648 150.989 25.5648C151.872 25.4541 152.314 24.9008 152.645 24.5688L152.755 24.4581L154.08 22.9089L154.19 22.7982C154.521 22.4662 154.852 22.0236 154.852 21.5809C154.852 21.0276 154.521 20.3636 153.528 20.3636H153.418H153.197C154.301 19.1463 154.963 18.3717 154.963 17.7077V17.1544L154.632 16.8224C154.19 16.3798 153.307 16.3798 152.866 16.3798Z" fill="#FABEBF"/>
<path d="M145.36 31.7618C145.36 32.7578 145.802 33.4217 146.906 33.3111C147.126 33.3111 147.899 33.0897 149.775 31.5405C150.548 30.9872 150.879 30.5445 151.21 30.5445C151.32 30.5445 151.431 30.5445 151.431 30.8765C151.431 31.3191 149.334 33.2004 148.892 33.643C146.906 35.303 145.14 36.6309 143.594 36.7416C142.932 36.7416 141.718 36.4096 141.718 33.9751C141.718 32.7578 142.601 30.4338 146.574 24.6794L143.484 24.9007C143.153 24.9007 143.043 24.9007 143.153 24.6794C143.263 24.3474 143.705 23.5728 144.146 22.9088C144.919 21.6915 145.029 21.5809 147.347 21.3595C147.789 21.3595 148.23 21.2489 148.561 21.2489C150.548 18.1504 151.541 17.3757 152.976 17.265C153.197 17.265 154.08 17.265 154.08 17.4863C154.08 18.0397 152.203 19.8103 150.989 21.2489C151.32 21.2489 151.652 21.2489 151.983 21.2489C152.314 21.2489 152.535 21.2489 152.866 21.2489C153.086 21.2489 153.197 21.2489 153.418 21.2489H153.528C153.749 21.2489 153.969 21.3595 153.969 21.5809C153.969 21.8022 153.749 22.0235 153.528 22.3555L152.093 23.7941C151.762 24.1261 151.541 24.5688 150.989 24.5688C150.658 24.5688 149.003 24.6794 148.782 24.6794C147.126 27.0033 145.36 29.7699 145.36 31.7618Z" fill="#CD1719" fill-opacity="0.78"/>
<path d="M157.281 21.4702C155.404 21.5809 151.983 26.0074 151.983 26.1181C150.879 27.6673 149.886 29.3273 149.886 31.6512C149.886 32.3151 150.658 34.8604 151.652 35.7457L152.755 36.1883C153.307 36.1883 153.859 35.8563 155.073 34.971C154.301 36.5203 153.418 38.0696 153.418 38.0696L152.755 39.1762C152.314 39.8402 151.983 40.3935 151.983 41.0575C151.983 42.9387 152.203 43.492 152.645 43.9347L153.528 44.2667C154.411 44.156 154.963 43.492 156.177 41.8321L159.598 37.6269L165.448 30.9872L166 29.8806C166 29.3273 165.669 28.8846 165.117 28.7739L164.234 28.8846L163.461 29.4379C163.461 29.4379 162.689 30.1019 161.916 30.8765C163.241 28.6633 164.786 26.1181 164.786 26.1181C165.007 25.6754 165.559 24.7901 165.559 23.9048C165.559 22.9089 165.227 22.1342 164.565 21.9129C164.344 21.8022 163.572 21.5809 162.799 22.4662L161.475 23.9048L159.157 26.45C158.053 27.5567 155.625 29.6593 154.301 30.6552C154.411 30.4339 154.521 30.2126 154.632 29.9912C156.287 28.9953 159.598 25.4541 159.598 23.6835C159.598 23.2408 159.378 22.6875 158.936 22.3555C158.495 21.5809 157.832 21.3596 157.281 21.4702Z" fill="#FABEBF"/>
<path d="M153.197 30.9872C153.197 31.5405 153.528 31.8725 153.749 31.7618C154.411 31.7618 158.826 27.778 159.819 26.782C161.144 25.4541 162.468 23.9048 163.572 22.7982C164.344 22.0235 164.786 22.6875 164.786 23.6834C164.786 24.3474 164.344 25.1221 164.124 25.4541L159.378 33.5324C159.047 34.0857 158.936 34.307 158.826 34.5284C158.826 34.639 158.826 34.7497 158.826 34.7497L158.936 34.8603C159.157 34.8603 159.267 34.7497 159.598 34.4177L164.124 30.1019C164.344 29.8806 164.565 29.6592 164.786 29.5486C164.896 29.5486 165.007 29.5486 165.117 29.5486C165.227 29.5486 165.338 29.6592 165.338 29.7699C165.338 29.8805 165.117 30.1019 165.117 30.2125L159.267 36.8523C155.846 40.7254 154.521 43.16 153.749 43.16C153.307 43.16 153.307 41.6107 153.307 40.9468C153.307 40.3935 153.859 39.7295 154.521 38.4016L157.612 32.4258C157.832 31.9831 157.832 31.4298 157.391 31.8724C154.632 34.1964 153.528 35.0817 152.976 35.0817C152.093 35.1923 151.1 32.0938 151.1 31.4298C151.1 29.5485 151.872 27.9993 152.976 26.45C153.638 25.5647 156.508 22.3555 157.612 22.2449C158.274 22.1342 158.936 22.7982 158.936 23.2408C158.936 24.4581 155.625 28.2206 154.19 28.8846C153.418 29.8805 153.197 30.2125 153.197 30.9872Z" fill="#CD1719" fill-opacity="0.78"/>
</svg>
